<svg width="34" height="34" viewBox="0 0 34 34" fill="none" xmlns="http://www.w3.org/2000/svg">
<rect x="1.5" y="1.5" width="31" height="31" rx="6.5" fill="white" fill-opacity="0.7" stroke="#9CA3AF" stroke-width="3"/>
<path d="M8 10.6422H10H26" stroke="#9CA3AF" stroke-width="3" stroke-linecap="round" stroke-linejoin="round"/>
<path d="M24 10.6422V23.3897C24 23.8727 23.7893 24.3359 23.4142 24.6774C23.0391 25.019 22.5304 25.2108 22 25.2108H12C11.4696 25.2108 10.9609 25.019 10.5858 24.6774C10.2107 24.3359 10 23.8727 10 23.3897V10.6422M13 10.6422V8.82108C13 8.3381 13.2107 7.8749 13.5858 7.53338C13.9609 7.19186 14.4696 7 15 7H19C19.5304 7 20.0391 7.19186 20.4142 7.53338C20.7893 7.8749 21 8.3381 21 8.82108V10.6422" stroke="#9CA3AF" stroke-width="3" stroke-linecap="round" stroke-linejoin="round"/>
<path d="M15 15.1948V20.6581" stroke="#9CA3AF" stroke-width="3" stroke-linecap="round" stroke-linejoin="round"/>
<path d="M19 15.1948V20.6581" stroke="#9CA3AF" stroke-width="3" stroke-linecap="round" stroke-linejoin="round"/>
</svg>
