<svg width="34" height="34" viewBox="0 0 34 34" fill="none" xmlns="http://www.w3.org/2000/svg">
<rect x="1.5" y="1.5" width="31" height="31" rx="6.5" fill="white" fill-opacity="0.7" stroke="#9CA3AF" stroke-width="3"/>
<path d="M16.6686 9.8075H10.7041C10.2522 9.8075 9.81872 9.98705 9.49913 10.3066C9.17954 10.6262 9 11.0597 9 11.5116V23.4406C9 23.8926 9.17954 24.326 9.49913 24.6456C9.81872 24.9652 10.2522 25.1447 10.7041 25.1447H22.6331C23.0851 25.1447 23.5185 24.9652 23.8381 24.6456C24.1577 24.326 24.3372 23.8926 24.3372 23.4406V17.4761" stroke="#9CA3AF" stroke-width="3" stroke-linecap="round" stroke-linejoin="round"/>
<path d="M23.06 8.52941C23.399 8.19043 23.8587 8 24.3381 8C24.8175 8 25.2772 8.19043 25.6162 8.52941C25.9552 8.86838 26.1456 9.32813 26.1456 9.80751C26.1456 10.2869 25.9552 10.7466 25.6162 11.0856L17.5216 19.1803L14.1133 20.0323L14.9654 16.6241L23.06 8.52941Z" stroke="#9CA3AF" stroke-width="3" stroke-linecap="round" stroke-linejoin="round"/>
</svg>
