<svg width="24" height="20" viewBox="0 0 24 20" fill="none" xmlns="http://www.w3.org/2000/svg">
<path fill-rule="evenodd" clip-rule="evenodd" d="M8.03125 9.91677C8.03125 9.38176 8.46499 8.94802 9 8.94802H20.4125L17.88 6.77729C17.4737 6.42911 17.4267 5.81753 17.7749 5.41132C18.1231 5.00509 18.7347 4.95804 19.1409 5.30624L23.6617 9.18129C23.8764 9.36522 24 9.63402 24 9.91677C24 10.1995 23.8764 10.4683 23.6617 10.6522L19.1409 14.5272C18.7347 14.8755 18.1231 14.8285 17.7749 14.4222C17.4267 14.016 17.4737 13.4044 17.88 13.0563L20.4125 10.8855H9C8.46499 10.8855 8.03125 10.4518 8.03125 9.91677Z" fill="url(#paint0_linear_64_815)"/>
<path d="M16.7915 6C16.7915 6.907 16.7915 6.1105 16.5738 6.43627C16.4796 6.57733 16.3585 6.69845 16.2174 6.79271C15.8916 7.01037 15.4381 7.01036 14.5311 7.01036H9.0415C7.43648 7.01036 6.13525 8.31151 6.13525 9.91667C6.13525 11.5217 7.43648 12.8229 9.0415 12.8229H14.5311C15.4381 12.8229 15.8917 12.8229 16.2175 13.0406C16.3585 13.1349 16.4796 13.2559 16.5738 13.3969C16.7915 13.7227 16.7915 13.3969 16.7915 13.5C16.7915 17.1533 16.7915 16.865 15.6565 18C14.5215 19.135 12.6951 19.135 9.04176 19.135H7.7501C4.09675 19.135 2.27007 19.135 1.13509 18C9.91821e-05 16.865 9.72748e-05 17.1533 9.72748e-05 13.5V6C9.72748e-05 2.34662 9.91821e-05 2.26992 1.13509 1.13496C2.27007 0 4.09675 0 7.7501 0H9.04176C12.6951 0 14.5215 0 15.6565 1.13496C16.7915 2.26992 16.7915 2.34661 16.7915 6Z" fill="url(#paint1_linear_64_815)"/>
<defs>
<linearGradient id="paint0_linear_64_815" x1="16.0156" y1="5.073" x2="16.0156" y2="14.7605" gradientUnits="userSpaceOnUse">
<stop stop-color="#1EB8CD"/>
<stop offset="1" stop-color="#354D9B"/>
</linearGradient>
<linearGradient id="paint1_linear_64_815" x1="8.3958" y1="0" x2="8.3958" y2="19.135" gradientUnits="userSpaceOnUse">
<stop stop-color="#1EB8CD"/>
<stop offset="1" stop-color="#354D9B"/>
</linearGradient>
</defs>
</svg>
