<svg width="23" height="23" viewBox="0 0 23 23" fill="none" xmlns="http://www.w3.org/2000/svg">
<path d="M11.5001 21.0834C6.20721 21.0834 1.91675 16.793 1.91675 11.5001C1.91675 6.20721 6.20721 1.91675 11.5001 1.91675C16.793 1.91675 21.0834 6.20721 21.0834 11.5001C21.0834 16.793 16.793 21.0834 11.5001 21.0834ZM7.59008 8.84933V8.94708C7.59008 9.07416 7.64056 9.19604 7.73042 9.2859C7.82029 9.37576 7.94216 9.42625 8.06925 9.42625H9.02471C9.0875 9.42625 9.14969 9.41388 9.20771 9.38985C9.26573 9.36581 9.31844 9.33059 9.36285 9.28618C9.40726 9.24178 9.44248 9.18906 9.46651 9.13104C9.49054 9.07302 9.50291 9.01084 9.50291 8.94804C9.50291 7.71179 10.4593 7.0515 11.7454 7.0515C12.9989 7.0515 13.8231 7.71179 13.8231 8.65191C13.8231 9.54125 13.3612 9.95429 12.2073 10.4823L11.8777 10.6299C10.905 11.0592 10.5417 11.7013 10.5417 12.8235V12.9376C10.5417 13.0647 10.5922 13.1865 10.6821 13.2764C10.772 13.3663 10.8938 13.4167 11.0209 13.4167H11.9764C12.0392 13.4167 12.1014 13.4044 12.1594 13.3803C12.2174 13.3563 12.2701 13.3211 12.3145 13.2767C12.3589 13.2323 12.3941 13.1796 12.4182 13.1215C12.4422 13.0635 12.4546 13.0013 12.4546 12.9385C12.4546 12.444 12.5868 12.2457 12.9817 12.0645L13.3123 11.916C14.6971 11.2892 15.7359 10.4651 15.7359 8.66725V8.56854C15.7359 6.67296 14.0876 5.27091 11.7454 5.27091C9.37066 5.27091 7.59008 6.63941 7.59008 8.84933ZM10.0626 16.2831C10.0626 17.114 10.6941 17.7292 11.4915 17.7292C12.306 17.7292 12.9376 17.114 12.9376 16.2831C12.9376 15.4522 12.306 14.8542 11.4915 14.8542C10.6941 14.8542 10.0626 15.4522 10.0626 16.2831Z" fill="#9CA3AF"/>
</svg>
